<svg width="17" height="49" viewBox="0 0 17 49" fill="none" xmlns="http://www.w3.org/2000/svg">
<path d="M4.68118 14.4324L4.80535 14.6397C3.85412 15.5518 3.37103 16.9081 3.23587 18.2461C2.76136 22.6524 6.72304 28.4611 9.3819 32.278C11.4229 35.2149 14.1143 38.3676 13.6812 42.3796C13.2985 45.8704 9.77066 48.3328 6.51315 48.3178L6.54372 48.0788C8.42138 47.7988 9.84279 46.5082 10.0904 44.1568C10.7168 38.3711 -0.0927944 30.3531 0.817762 21.8924C1.12261 18.9209 2.1706 16.2284 4.68118 14.4324ZM3.25278 6.5031C3.63554 3.0123 7.16336 0.549895 10.4209 0.564927L10.3903 0.803912C8.51263 1.08394 7.10503 2.37552 6.84361 4.72592C6.21717 10.5116 17.0643 18.1918 16.1537 26.6526C15.8351 29.623 14.7506 32.6393 12.239 34.4494L12.1149 34.2421C13.0661 33.3299 13.5492 31.9737 13.6843 30.6357C14.1589 26.2294 10.0622 20.3687 7.40428 16.5376C5.36233 13.6148 2.86014 10.1351 3.25278 6.5031Z" fill="white"/>
</svg>
