<svg width="216" height="34" viewBox="0 0 216 34" fill="none" xmlns="http://www.w3.org/2000/svg">
<path d="M13.8172 16.7111C13.8268 17.9186 13.7096 19.1238 13.4675 20.3069C13.2696 21.3118 12.9172 22.28 12.4229 23.1771C12.0077 23.9414 11.4164 24.5957 10.6978 25.0857C9.99807 25.5426 9.17755 25.7796 8.34193 25.7661C7.37063 25.7661 6.5693 25.4956 5.93795 24.9546C5.32147 24.4351 4.86648 23.7501 4.62669 22.9804H4.55821V33.1645H0.87793V8.2826H4.49556V10.672H4.55967C4.82005 9.87782 5.26377 9.15609 5.8549 8.56525C6.43089 8.00189 7.2599 7.71972 8.34193 7.71875C9.1728 7.70335 9.98876 7.94062 10.6818 8.39915C11.3879 8.89053 11.9716 9.53755 12.3879 10.2903C12.8845 11.182 13.2431 12.1438 13.4515 13.143C13.7032 14.3155 13.8258 15.512 13.8172 16.7111V16.7111ZM10.067 16.7111C10.07 15.9552 10.0145 15.2002 9.90088 14.4528C9.81222 13.8264 9.64531 13.2136 9.40406 12.6287C9.2135 12.1646 8.91833 11.7507 8.54154 11.4194C8.18963 11.1212 7.741 10.9616 7.27981 10.9707C6.82946 10.9659 6.39281 11.1255 6.05159 11.4194C5.67346 11.7521 5.37474 12.1653 5.17742 12.6287C4.92227 13.2113 4.74353 13.8244 4.64563 14.4528C4.40443 15.9487 4.40443 17.4735 4.64563 18.9694C4.74379 19.6035 4.92148 20.2228 5.1745 20.8124C5.36909 21.2828 5.66801 21.7028 6.04868 22.0407C6.38989 22.3346 6.82654 22.4942 7.27689 22.4894C7.73808 22.4985 8.18672 22.3389 8.53862 22.0407C8.91902 21.7044 9.21541 21.2838 9.40406 20.8124C9.6439 20.2221 9.81074 19.6046 9.90088 18.9738C10.0148 18.225 10.0703 17.4685 10.067 16.7111V16.7111Z" fill="white"/>
<path d="M24.335 22.6803C24.0903 23.6084 23.6503 24.3339 23.0078 24.8511C22.3652 25.3684 21.5158 25.6321 20.4537 25.6321C19.9451 25.6286 19.4408 25.5394 18.9618 25.3684C18.4421 25.185 17.9709 24.8861 17.5835 24.4942C17.1436 24.0372 16.8007 23.4961 16.5753 22.9032C16.2887 22.1426 16.1531 21.3335 16.1761 20.5211C16.1761 19.3283 16.3917 18.3502 16.823 17.5867C17.2212 16.8592 17.7902 16.2392 18.481 15.7801C19.1672 15.3327 19.9336 15.0225 20.7378 14.8666C21.5382 14.7041 22.3527 14.6211 23.1695 14.6189H24.0976V14.09C24.0976 12.9614 23.8712 12.1484 23.4186 11.6511C22.966 11.1538 22.3628 10.9051 21.6091 10.9051C20.9992 10.8976 20.3983 11.0525 19.868 11.3539C19.3471 11.6541 18.891 12.0547 18.5261 12.5326L16.7341 10.1767C17.3637 9.39406 18.1715 8.77358 19.09 8.36711C19.9715 7.9504 20.9327 7.72923 21.9078 7.71877C22.948 7.71877 23.8275 7.88486 24.5463 8.21705C25.2482 8.53254 25.8521 9.0313 26.2947 9.66089C26.766 10.3649 27.0873 11.1584 27.2388 11.992C27.437 13.0306 27.5316 14.0862 27.5214 15.1434V25.1964H24.3962V22.6803H24.335ZM24.2025 17.2735H23.1083C22.6574 17.2723 22.2073 17.3118 21.7635 17.3915C21.3554 17.4587 20.9658 17.6106 20.6198 17.8373C20.2798 18.0674 20.0053 18.3816 19.8228 18.7494C19.6078 19.2122 19.5064 19.7197 19.5271 20.2297C19.5271 21.117 19.7194 21.7682 20.1099 22.1893C20.2753 22.3846 20.481 22.5418 20.7129 22.6502C20.9447 22.7585 21.1972 22.8155 21.4532 22.8172C21.9217 22.8316 22.3802 22.6793 22.747 22.3874C23.1077 22.0914 23.397 21.7179 23.5935 21.2947C23.8076 20.8221 23.9589 20.3234 24.0437 19.8115C24.1396 19.2915 24.1884 18.7639 24.1894 18.2351L24.2025 17.2735Z" fill="white"/>
<path d="M36.9362 8.68181C37.2129 8.3774 37.5504 8.13441 37.9268 7.96852C38.3032 7.80264 38.7103 7.71755 39.1216 7.71876H39.4014C39.4995 7.72273 39.5959 7.74548 39.6855 7.78578L39.4873 11.6336C39.2284 11.5645 38.9613 11.5307 38.6933 11.5331C38.2229 11.5272 37.7652 11.6859 37.3995 11.9818C37.0017 12.3046 36.674 12.7052 36.4365 13.159C36.1579 13.6798 35.9566 14.2383 35.8391 14.8171C35.7059 15.4396 35.639 16.0745 35.6395 16.7111V25.2023H31.8252V8.28261H35.5084V11.5345H35.5754C35.8629 10.2748 36.3165 9.32385 36.9362 8.68181Z" fill="white"/>
<path d="M48.7449 22.6803C48.5001 23.6083 48.0601 24.3339 47.4176 24.8511C46.775 25.3684 45.9242 25.6321 44.8635 25.6321C44.3545 25.6285 43.8496 25.5393 43.3701 25.3684C42.8509 25.1851 42.3801 24.8862 41.9933 24.4942C41.553 24.0373 41.2095 23.4961 40.9836 22.9032C40.6988 22.1447 40.5632 21.3383 40.5844 20.5283C40.5844 19.3356 40.7996 18.3575 41.2299 17.594C41.6296 16.8666 42.1994 16.2467 42.8908 15.7874C43.5762 15.3395 44.3422 15.0292 45.1462 14.8739C45.9484 14.7105 46.7649 14.627 47.5837 14.6247H48.5117V14.09C48.5117 12.9614 48.2849 12.1484 47.8313 11.6511C47.3777 11.1538 46.775 10.9051 46.0233 10.9051C45.4133 10.8974 44.8124 11.0522 44.2822 11.3539C43.7613 11.6541 43.3052 12.0547 42.9403 12.5325L41.1468 10.1766C41.7774 9.39575 42.585 8.77643 43.5027 8.37001C44.3857 7.95312 45.3484 7.73196 46.3248 7.72166C47.3612 7.72166 48.2398 7.88776 48.9605 8.21994C49.6625 8.53525 50.2665 9.03405 50.7088 9.66379C51.1818 10.3671 51.5038 11.1609 51.6544 11.9949C51.8521 13.0335 51.9463 14.0891 51.9356 15.1463V25.1993H48.8119V22.6803H48.7449ZM48.6137 17.2735H47.5181C47.0672 17.2722 46.6171 17.3117 46.1733 17.3915C45.7652 17.4587 45.3756 17.6106 45.0296 17.8373C44.6896 18.0674 44.4151 18.3816 44.2327 18.7494C44.0181 19.2125 43.9157 19.7196 43.934 20.2297C43.934 21.1169 44.1278 21.7682 44.5168 22.1893C44.6825 22.3846 44.8884 22.5418 45.1205 22.6502C45.3526 22.7586 45.6054 22.8155 45.8615 22.8172C46.3296 22.8314 46.7875 22.6791 47.1539 22.3874C47.5142 22.091 47.8034 21.7176 48.0004 21.2947C48.2179 20.8243 48.3736 20.3277 48.4637 19.8173C48.5596 19.2973 48.6084 18.7697 48.6094 18.2409L48.6137 17.2735Z" fill="white"/>
<path d="M68.0511 24.7375C68.0627 25.8919 67.9405 27.0438 67.6868 28.1701C67.4745 29.1272 67.0673 30.0303 66.4907 30.8232C65.9378 31.566 65.2081 32.159 64.3679 32.5482C63.5053 32.9581 62.4549 33.1631 61.2165 33.1631C60.0647 33.1673 58.9244 32.9357 57.8655 32.4827C56.8712 32.076 55.9766 31.4592 55.2429 30.6746L57.2666 27.9894C57.7585 28.5228 58.3356 28.9708 58.9742 29.3153C59.6322 29.6705 60.3696 29.853 61.1174 29.8456C61.6622 29.8649 62.2016 29.7316 62.6749 29.461C63.0975 29.212 63.4488 28.8582 63.6948 28.4338C63.965 27.9612 64.1504 27.4449 64.2426 26.9084C64.3546 26.2794 64.4078 25.6414 64.4014 25.0027V22.9469H64.3358C64.0888 23.7018 63.6208 24.3652 62.9925 24.8511C62.3168 25.3795 61.478 25.6557 60.6206 25.6321C59.7766 25.6502 58.946 25.4191 58.2326 24.9677C57.52 24.4978 56.9329 23.8612 56.5221 23.113C56.0385 22.2304 55.6921 21.2792 55.495 20.2923C55.254 19.1249 55.1373 17.9352 55.1468 16.7432C55.1383 15.528 55.2614 14.3156 55.5139 13.127C55.7172 12.1268 56.0751 11.1643 56.5746 10.2743C56.9938 9.52751 57.5778 8.88621 58.2822 8.39915C58.9744 7.94005 59.7901 7.70272 60.6206 7.71875C61.7036 7.71875 62.5331 8.00091 63.1091 8.56524C63.6969 9.15221 64.1295 9.87621 64.3679 10.672H64.4684V8.28259H68.0511V24.7375ZM64.5019 16.7111C64.5053 15.9545 64.4438 15.199 64.3183 14.4528C64.2202 13.8246 64.042 13.2116 63.788 12.6287C63.5901 12.1656 63.2915 11.7525 62.9138 11.4194C62.5727 11.1252 62.136 10.9657 61.6856 10.9707C61.2249 10.962 60.7769 11.1215 60.4253 11.4194C60.0477 11.7499 59.7523 12.164 59.5628 12.6287C59.3204 13.2133 59.153 13.8262 59.0645 14.4528C58.8447 15.9503 58.8447 17.4719 59.0645 18.9694C59.1527 19.6017 59.3186 20.2208 59.5584 20.8124C59.7452 21.2841 60.0407 21.7049 60.421 22.0407C60.7725 22.3386 61.2205 22.4981 61.6812 22.4894C62.1316 22.4944 62.5684 22.3349 62.9095 22.0407C63.2896 21.7023 63.5885 21.2825 63.7836 20.8124C64.0361 20.224 64.2143 19.6063 64.314 18.9738C64.4412 18.2263 64.5041 17.4693 64.5019 16.7111V16.7111Z" fill="white"/>
<path d="M77.7035 8.68181C77.9803 8.37747 78.3178 8.13452 78.6942 7.96864C79.0706 7.80277 79.4776 7.71764 79.889 7.71876H80.1702C80.2678 7.72305 80.3637 7.74579 80.4528 7.78578L80.2561 11.6336C79.9967 11.5643 79.7291 11.5305 79.4606 11.5331C78.9908 11.5276 78.5337 11.6863 78.1683 11.9818C77.7705 12.3046 77.4428 12.7052 77.2053 13.159C76.9272 13.68 76.726 14.2385 76.6079 14.8171C76.4754 15.4397 76.4085 16.0745 76.4083 16.7111V25.2023H72.594V8.2826H76.2757V11.5345H76.3486C76.6332 10.2748 77.0848 9.32384 77.7035 8.68181Z" fill="white"/>
<path d="M89.514 22.6803C89.2677 23.6083 88.8277 24.3339 88.1852 24.8511C87.5427 25.3684 86.6933 25.6321 85.6326 25.6321C85.1236 25.6285 84.6187 25.5393 84.1392 25.3684C83.6198 25.1854 83.1489 24.8865 82.7624 24.4942C82.3221 24.0367 81.9778 23.4958 81.7498 22.9032C81.4669 22.1442 81.3319 21.3381 81.3521 20.5283C81.3521 19.3356 81.5677 18.3575 81.999 17.594C82.3968 16.8661 82.9658 16.246 83.657 15.7874C84.3432 15.34 85.1096 15.0297 85.9138 14.8739C86.7161 14.7105 87.5326 14.627 88.3513 14.6247H89.2808V14.09C89.2808 12.9614 89.054 12.1484 88.6004 11.6511C88.1468 11.1538 87.5441 10.9051 86.7924 10.9051C86.1824 10.8971 85.5814 11.052 85.0513 11.3539C84.53 11.654 84.0734 12.0547 83.708 12.5325L81.9159 10.1766C82.5465 9.39575 83.3541 8.77643 84.2718 8.37001C85.1534 7.95343 86.1146 7.73227 87.0896 7.72166C88.1308 7.72166 89.0103 7.88776 89.7281 8.21994C90.43 8.53544 91.034 9.0342 91.4765 9.66379C91.9484 10.3675 92.2698 11.1612 92.4206 11.9949C92.6188 13.0335 92.7135 14.0891 92.7032 15.1463V25.1993H89.5781V22.6803H89.514ZM89.3785 17.2735H88.2872C87.8363 17.2721 87.3862 17.3116 86.9424 17.3915C86.5337 17.4584 86.1436 17.6103 85.7972 17.8373C85.4576 18.0678 85.1832 18.3819 85.0003 18.7494C84.7877 19.2108 84.6878 19.7162 84.7089 20.2238C84.7089 21.1111 84.9027 21.7624 85.2917 22.1834C85.4569 22.3789 85.6626 22.5363 85.8945 22.6447C86.1264 22.7531 86.379 22.81 86.635 22.8114C87.1031 22.8258 87.5611 22.6735 87.9273 22.3816C88.288 22.0856 88.5774 21.7121 88.7738 21.2889C88.9925 20.8188 89.1487 20.3221 89.2386 19.8115C89.3346 19.2915 89.3834 18.7639 89.3843 18.2351L89.3785 17.2735Z" fill="white"/>
<path d="M109.879 16.7111C109.89 17.9185 109.773 19.1237 109.532 20.3069C109.333 21.3117 108.981 22.2798 108.486 23.1771C108.071 23.941 107.481 24.5952 106.763 25.0857C106.063 25.5423 105.242 25.7792 104.407 25.7661C103.436 25.7661 102.633 25.4956 102 24.9546C101.384 24.4344 100.929 23.7496 100.689 22.9804H100.625V33.1645H96.9429V8.2826H100.559V10.672H100.626C100.884 9.8775 101.327 9.15551 101.918 8.56525C102.494 8.00189 103.324 7.71973 104.407 7.71876C105.235 7.7044 106.048 7.94165 106.738 8.39915C107.447 8.89025 108.032 9.53848 108.448 10.2932C108.945 11.185 109.303 12.1468 109.511 13.1459C109.762 14.3175 109.886 15.5129 109.879 16.7111ZM106.132 16.7111C106.135 15.9552 106.079 15.2002 105.966 14.4528C105.877 13.8262 105.71 13.2133 105.468 12.6287C105.279 12.1641 104.984 11.75 104.606 11.4194C104.255 11.1212 103.806 10.9616 103.345 10.9707C102.895 10.9659 102.459 11.1254 102.118 11.4194C101.74 11.7526 101.442 12.1657 101.244 12.6287C100.99 13.2117 100.813 13.8247 100.715 14.4528C100.472 15.9485 100.472 17.4737 100.715 18.9694C100.812 19.6031 100.988 20.2222 101.238 20.8124C101.433 21.2824 101.732 21.7023 102.112 22.0407C102.453 22.3346 102.889 22.4942 103.339 22.4894C103.8 22.4985 104.249 22.3389 104.601 22.0407C104.98 21.7048 105.275 21.284 105.462 20.8124C105.703 20.2224 105.87 19.6048 105.96 18.9738C106.076 18.2251 106.133 17.4686 106.132 16.7111V16.7111Z" fill="white"/>
<path d="M121.951 25.2023V14.5854C121.95 14.1591 121.928 13.7331 121.883 13.3091C121.845 12.9056 121.75 12.5094 121.603 12.1319C121.473 11.7979 121.255 11.5054 120.972 11.2854C120.657 11.0641 120.278 10.9534 119.894 10.9707C119.052 10.9707 118.384 11.3903 117.886 12.2324C117.388 13.0745 117.143 14.1337 117.143 15.4217V25.2081H113.396V0.123627H117.143V10.9051H117.209C117.497 10.042 118.007 9.26971 118.687 8.66578C119.382 8.03443 120.26 7.71876 121.323 7.71876C122.253 7.71876 123.005 7.91302 123.58 8.30154C124.153 8.68745 124.611 9.22038 124.907 9.84446C125.233 10.5413 125.445 11.2854 125.538 12.0488C125.648 12.8904 125.704 13.7382 125.704 14.5869V25.2037L121.951 25.2023Z" fill="white"/>
<path d="M150.637 13.9647C150.165 11.6234 148.113 9.90419 145.269 9.90419C141.591 9.90419 139.249 12.7627 139.249 17.2327C139.249 21.7026 141.591 24.5612 145.285 24.5612C148.083 24.5612 150.136 22.9804 150.622 20.6274H151.807C151.306 23.5778 148.747 25.6306 145.285 25.6306C140.891 25.6306 138.063 22.3918 138.063 17.2371C138.063 12.1144 140.891 8.83041 145.269 8.83041C148.782 8.83041 151.322 11.08 151.807 13.9691L150.637 13.9647Z" fill="white"/>
<path d="M153.694 17.2371C153.694 12.0838 156.628 8.83041 160.979 8.83041C165.329 8.83041 168.277 12.0838 168.277 17.2371C168.277 22.3903 165.342 25.6306 160.979 25.6306C156.615 25.6306 153.694 22.3772 153.694 17.2371ZM167.073 17.2371C167.073 12.7074 164.656 9.90856 160.976 9.90856C157.296 9.90856 154.879 12.7074 154.879 17.2371C154.879 21.7668 157.296 24.5656 160.975 24.5656C164.653 24.5656 167.073 21.7376 167.073 17.2371V17.2371Z" fill="white"/>
<path d="M171.862 10.0761H169.582V9.04313H171.862V6.71199C171.862 4.03556 173.185 2.91079 175.481 2.91079C175.886 2.90107 176.29 2.94715 176.682 3.04774V4.08218C176.309 3.98691 175.926 3.94087 175.541 3.94523C173.975 3.94523 173.048 4.72033 173.048 6.78775V9.04313H176.559V10.0761H173.048V25.4179H171.862V10.0761Z" fill="white"/>
<path d="M180.011 10.0761H177.731V9.04313H180.011V6.71199C180.011 4.03556 181.334 2.91078 183.63 2.91078C184.035 2.90088 184.439 2.94697 184.831 3.04774V4.08218C184.459 3.98682 184.076 3.94078 183.691 3.94523C182.125 3.94523 181.197 4.72033 181.197 6.78775V9.04313H184.71V10.0761H181.197V25.4179H180.011V10.0761Z" fill="white"/>
<path d="M199.655 20.8416C199.123 23.6098 196.595 25.6306 192.981 25.6306C188.541 25.6306 185.683 22.5127 185.683 17.2531C185.683 12.1741 188.541 8.83041 192.858 8.83041C197.084 8.83041 199.852 11.9774 199.852 16.7359V17.4206H186.885V17.4804C186.885 21.9503 189.318 24.5656 192.997 24.5656C195.992 24.5656 197.984 22.9848 198.456 20.8416H199.655ZM186.899 16.4168H198.651C198.637 12.5398 196.295 9.89399 192.844 9.89399C189.437 9.89399 187.077 12.5078 186.899 16.4168V16.4168Z" fill="white"/>
<path d="M215.801 20.8416C215.27 23.6098 212.742 25.6306 209.127 25.6306C204.688 25.6306 201.829 22.5127 201.829 17.2531C201.829 12.1741 204.688 8.83041 209.006 8.83041C213.231 8.83041 215.999 11.9774 215.999 16.7359V17.4206H203.033V17.4804C203.033 21.9503 205.464 24.5656 209.152 24.5656C212.147 24.5656 214.139 22.9848 214.61 20.8416H215.801ZM203.046 16.4168H214.799C214.783 12.5398 212.442 9.89399 208.99 9.89399C205.581 9.89399 203.228 12.5078 203.046 16.4168V16.4168Z" fill="white"/>
</svg>
