<svg width="56" height="56" viewBox="0 0 56 56" fill="none" xmlns="http://www.w3.org/2000/svg">
<g filter="url(#filter0_d_798_157)">
<path d="M8 25C8 13.9543 16.9543 5 28 5C39.0457 5 48 13.9543 48 25C48 36.0457 39.0457 45 28 45C16.9543 45 8 36.0457 8 25Z" fill="white"/>
<g clip-path="url(#clip0_798_157)">
<path d="M30.0527 25.4999L34.7457 20.8068L35.7135 19.839C35.8563 19.6962 35.8563 19.4643 35.7135 19.3215L34.678 18.286C34.5353 18.1432 34.3033 18.1432 34.1605 18.286L28.4997 23.9468L22.8388 18.2855C22.696 18.1427 22.464 18.1427 22.3213 18.2855L21.2853 19.321C21.1425 19.4638 21.1425 19.6958 21.2853 19.8386L26.9466 25.4999L21.2853 31.1607C21.1425 31.3035 21.1425 31.5355 21.2853 31.6782L22.3208 32.7137C22.4636 32.8565 22.6956 32.8565 22.8384 32.7137L28.4997 27.0529L33.1927 31.7459L34.1605 32.7137C34.3033 32.8565 34.5353 32.8565 34.678 32.7137L35.7135 31.6782C35.8563 31.5355 35.8563 31.3035 35.7135 31.1607L30.0527 25.4999Z" fill="#165659"/>
</g>
</g>
<defs>
<filter id="filter0_d_798_157" x="0.264151" y="0.358491" width="55.4717" height="55.4717" filterUnits="userSpaceOnUse" color-interpolation-filters="sRGB">
<feFlood flood-opacity="0" result="BackgroundImageFix"/>
<feColorMatrix in="SourceAlpha" type="matrix" values="0 0 0 0 0 0 0 0 0 0 0 0 0 0 0 0 0 0 127 0" result="hardAlpha"/>
<feOffset dy="3.09434"/>
<feGaussianBlur stdDeviation="3.86792"/>
<feColorMatrix type="matrix" values="0 0 0 0 0 0 0 0 0 0 0 0 0 0 0 0 0 0 0.15 0"/>
<feBlend mode="normal" in2="BackgroundImageFix" result="effect1_dropShadow_798_157"/>
<feBlend mode="normal" in="SourceGraphic" in2="effect1_dropShadow_798_157" result="shape"/>
</filter>
<clipPath id="clip0_798_157">
<rect width="14.6429" height="23.4286" fill="white" transform="translate(21.1787 13.7856)"/>
</clipPath>
</defs>
</svg>
